<svg id="Layer_1" data-name="Layer 1" xmlns="http://www.w3.org/2000/svg" viewBox="0 0 283.46 137.16"><defs><style>.cls-1{fill:#fff;}</style></defs><title>KONING_KEVIN_MONOGRAM_K</title><path class="cls-1" d="M306.81,353.36a3.61,3.61,0,0,0-3.61,3.61V486.92a3.61,3.61,0,0,0,3.61,3.61H436.76a3.61,3.61,0,0,0,2.41-6.29S377.29,426.72,372,421.94c5.18-5,67.3-62.37,67.3-62.37a3.61,3.61,0,0,0-2.49-6.21H306.81Z" transform="translate(-156.91 -353.36)"/><path class="cls-1" d="M225.63,428a3.51,3.51,0,0,1-2.59-1.08s-18.35-20.2-26.47-28.67v52.6h57.82V398.7c-7.92,8.84-26.21,28.15-26.21,28.15A3.51,3.51,0,0,1,225.63,428Zm64.83-74.64H160.51a3.61,3.61,0,0,0-3.61,3.61V486.92a3.61,3.61,0,0,0,3.61,3.61H290.46a3.61,3.61,0,0,0,3.61-3.61V357A3.61,3.61,0,0,0,290.46,353.36Zm-29.06,101a3.5,3.5,0,0,1-3.5,3.5H193.07a3.5,3.5,0,0,1-3.5-3.5V389.53a3.5,3.5,0,0,1,6-2.42s25.44,27.6,29.88,32.24c4.27-4.76,29.8-32.15,29.8-32.15a3.5,3.5,0,0,1,6.11,2.34v64.82Z" transform="translate(-156.91 -353.36)"/></svg>